<?xml version="1.0" encoding="UTF-8" standalone="no"?>
<svg
   width="500"
   zoomAndPan="magnify"
   viewBox="0 0 375 374.999991"
   height="500"
   preserveAspectRatio="xMidYMid meet"
   version="1.0"
   id="svg94"
   sodipodi:docname="Studylink_Logo_light.svg"
   inkscape:version="1.2.1 (9c6d41e410, 2022-07-14)"
   xmlns:inkscape="http://www.inkscape.org/namespaces/inkscape"
   xmlns:sodipodi="http://sodipodi.sourceforge.net/DTD/sodipodi-0.dtd"
   xmlns="http://www.w3.org/2000/svg"
   xmlns:svg="http://www.w3.org/2000/svg">
  <sodipodi:namedview
     id="namedview96"
     pagecolor="#ffffff"
     bordercolor="#000000"
     borderopacity="0.25"
     inkscape:showpageshadow="2"
     inkscape:pageopacity="0.0"
     inkscape:pagecheckerboard="0"
     inkscape:deskcolor="#d1d1d1"
     showgrid="false"
     inkscape:zoom="2.054"
     inkscape:cx="158.7147"
     inkscape:cy="315.23856"
     inkscape:window-width="2560"
     inkscape:window-height="1351"
     inkscape:window-x="2391"
     inkscape:window-y="-9"
     inkscape:window-maximized="1"
     inkscape:current-layer="svg94" />
  <defs
     id="defs50">
    <clipPath
       id="e6f118bf30">
      <path
         d="M 169 100 L 278 100 L 278 162 L 169 162 Z M 169 100 "
         clip-rule="nonzero"
         id="path2" />
    </clipPath>
    <clipPath
       id="9381c995c3">
      <path
         d="M 187.496094 11.6875 L 307.882812 132.070312 L 187.496094 252.457031 L 67.113281 132.070312 Z M 187.496094 11.6875 "
         clip-rule="nonzero"
         id="path5" />
    </clipPath>
    <clipPath
       id="a27ee31950">
      <path
         d="M 187.496094 11.6875 L 307.882812 132.070312 L 187.496094 252.457031 L 67.113281 132.070312 Z M 187.496094 11.6875 "
         clip-rule="nonzero"
         id="path8" />
    </clipPath>
    <clipPath
       id="680db17294">
      <path
         d="M 187.496094 11.6875 L 307.882812 132.070312 L 187.496094 252.457031 L 67.113281 132.070312 Z M 187.496094 11.6875 "
         clip-rule="nonzero"
         id="path11" />
    </clipPath>
    <clipPath
       id="0da2390372">
      <path
         d="M 145 77 L 302 77 L 302 186 L 145 186 Z M 145 77 "
         clip-rule="nonzero"
         id="path14" />
    </clipPath>
    <clipPath
       id="efe05b73ce">
      <path
         d="M 187.496094 11.6875 L 307.882812 132.070312 L 187.496094 252.457031 L 67.113281 132.070312 Z M 187.496094 11.6875 "
         clip-rule="nonzero"
         id="path17" />
    </clipPath>
    <clipPath
       id="ec21057e46">
      <path
         d="M 187.496094 11.6875 L 307.882812 132.070312 L 187.496094 252.457031 L 67.113281 132.070312 Z M 187.496094 11.6875 "
         clip-rule="nonzero"
         id="path20" />
    </clipPath>
    <clipPath
       id="4b3bd26a2b">
      <path
         d="M 187.496094 11.6875 L 307.882812 132.070312 L 187.496094 252.457031 L 67.113281 132.070312 Z M 187.496094 11.6875 "
         clip-rule="nonzero"
         id="path23" />
    </clipPath>
    <clipPath
       id="a28e4f1c90">
      <path
         d="M 97 101 L 206 101 L 206 163 L 97 163 Z M 97 101 "
         clip-rule="nonzero"
         id="path26" />
    </clipPath>
    <clipPath
       id="a5f7350462">
      <path
         d="M 187.496094 11.6875 L 307.882812 132.070312 L 187.496094 252.457031 L 67.113281 132.070312 Z M 187.496094 11.6875 "
         clip-rule="nonzero"
         id="path29" />
    </clipPath>
    <clipPath
       id="c145c97f11">
      <path
         d="M 187.496094 11.6875 L 307.882812 132.070312 L 187.496094 252.457031 L 67.113281 132.070312 Z M 187.496094 11.6875 "
         clip-rule="nonzero"
         id="path32" />
    </clipPath>
    <clipPath
       id="5b15932391">
      <path
         d="M 187.496094 11.6875 L 307.882812 132.070312 L 187.496094 252.457031 L 67.113281 132.070312 Z M 187.496094 11.6875 "
         clip-rule="nonzero"
         id="path35" />
    </clipPath>
    <clipPath
       id="d2eb303c26">
      <path
         d="M 73 77 L 229 77 L 229 186 L 73 186 Z M 73 77 "
         clip-rule="nonzero"
         id="path38" />
    </clipPath>
    <clipPath
       id="9cd9a7bac0">
      <path
         d="M 187.496094 11.6875 L 307.882812 132.070312 L 187.496094 252.457031 L 67.113281 132.070312 Z M 187.496094 11.6875 "
         clip-rule="nonzero"
         id="path41" />
    </clipPath>
    <clipPath
       id="1a74e16ce9">
      <path
         d="M 187.496094 11.6875 L 307.882812 132.070312 L 187.496094 252.457031 L 67.113281 132.070312 Z M 187.496094 11.6875 "
         clip-rule="nonzero"
         id="path44" />
    </clipPath>
    <clipPath
       id="7d3f20c8c1">
      <path
         d="M 187.496094 11.6875 L 307.882812 132.070312 L 187.496094 252.457031 L 67.113281 132.070312 Z M 187.496094 11.6875 "
         clip-rule="nonzero"
         id="path47" />
    </clipPath>
  </defs>
  <path
     stroke-linecap="butt"
     transform="matrix(0.117563,0.117563,-0.117563,0.117563,187.49724,11.685917)"
     fill="none"
     stroke-linejoin="miter"
     d="M 548.84135,673.75046 357.03993,865.55188 c -55.92063,55.92063 -146.54659,55.90401 -202.48383,0 -55.887398,-55.92062 -55.887398,-146.5632 0.0166,-202.46721 L 354.51469,463.14269 c 55.90401,-55.90401 146.54659,-55.90401 202.4506,0 19.00571,19.0057 31.99737,42.46379 38.06125,68.03178 2.62491,10.99805 13.65619,17.77631 24.65425,15.18462 11.01467,-2.6083 17.80954,-13.6562 15.20124,-24.67086 -7.8249,-32.87787 -24.52135,-63.09761 -48.94301,-87.51927 -71.9193,-71.88608 -188.47875,-71.88608 -260.38144,0.0166 L 125.6156,634.12756 C 53.712907,706.03025 53.696293,822.60631 125.599,894.509 c 71.9193,71.9193 188.49536,71.90269 260.39805,0 L 577.79847,702.70757 c 8.00764,-8.00765 8.00764,-20.96608 0.0166,-28.95711 -8.00765,-8.00765 -20.96608,-8.00765 -28.97373,0 z m 0,0"
     stroke="#000000"
     stroke-width="25"
     id="path84"
     inkscape:highlight-color="#000000"
     style="fill:#ffffff;stroke:#ffffff;stroke-opacity:1" />
  <path
     stroke-linecap="butt"
     transform="matrix(0.117563,0.117563,-0.117563,0.117563,187.49724,11.685917)"
     fill="none"
     stroke-linejoin="miter"
     d="m 469.06392,346.36727 77.65329,-77.65329 114.14814,-114.14814 c 55.90401,-55.904006 146.54659,-55.904006 202.48382,0 55.90401,55.90401 55.90401,146.54659 -0.0166,202.46722 L 663.39058,556.97504 c -55.90401,55.90401 -146.54659,55.90401 -202.4506,0 -19.0057,-19.00571 -31.98075,-42.44718 -38.06125,-67.99855 -2.60829,-11.01467 -13.65619,-17.80954 -24.67086,-15.20124 -10.99805,2.62491 -17.79292,13.63958 -15.18462,24.65425 7.80828,32.89448 24.53795,63.11422 48.943,87.51926 71.91931,71.88608 188.47875,71.88608 260.39806,0 L 892.30629,386.00678 c 71.90269,-71.90269 71.90269,-188.49536 0,-260.39805 -71.91931,-71.919305 -188.49537,-71.902692 -260.39806,0 L 440.10681,317.41016 c -8.00765,8.00764 -8.00765,20.96608 0,28.97372 7.99103,7.99104 20.94946,7.99104 28.95711,-0.0166 z"
     stroke="#000000"
     stroke-width="25"
     stroke-opacity="1"
     stroke-miterlimit="4"
     id="path64"
     inkscape:highlight-color="#000000"
     sodipodi:nodetypes="ccscssscccccssssssc"
     style="fill:#ffffff;stroke:#ffffff;stroke-opacity:1" />
  <path
     stroke-linecap="round"
     transform="matrix(19.249997,0,0,19.249997,-43.538481,-43.538486)"
     fill="none"
     stroke-linejoin="round"
     d="m 20.999973,8.999971 -7.31979,-4.0665492 -1.680212,-0.9334508 -9.000001,5 3.000001,1.667005 m 15.000002,-1.667005 -3.000001,1.667005 m 3.000001,-1.667005 v 7.000001 m -15.000002,-5.332996 6,3.332996 6.000001,-3.332996 m -12.000001,0 v 6.332996 l 6,3.000001 6.000001,-3.000001 v -6.332996"
     stroke="#000000"
     stroke-width="1"
     stroke-opacity="1"
     stroke-miterlimit="4"
     id="path52"
     inkscape:highlight-color="#000000"
     style="fill:none;stroke-width:1.00001313;stroke-dasharray:none;stroke:#ffffff;stroke-opacity:1"
     sodipodi:nodetypes="ccccccccccccccccc" />
</svg>
